<?xml version="1.0" encoding="UTF-8"?>
<svg version="1.1" xmlns="http://www.w3.org/2000/svg" width="1187" height="368">
<path d="M0 0 C16.5 0 33 0 50 0 C50 104.28 50 208.56 50 316 C100.82 316 151.64 316 204 316 C208.99779963 277.53765415 208.99779963 277.53765415 197.9140625 245.88671875 C196.1794124 244.77475931 194.41423923 243.70930611 192.625 242.6875 C190.78453823 241.52386472 188.94597988 240.35721324 187.109375 239.1875 C186.22314453 238.64222656 185.33691406 238.09695312 184.42382812 237.53515625 C179.58343831 234.46944602 175.31336899 230.76074102 171 227 C170.23558594 226.34515625 169.47117188 225.6903125 168.68359375 225.015625 C130.6133411 191.64927507 105.33609059 149.07491156 101 98 C100.87336615 94.65963228 100.87288095 91.3246184 100.88647461 87.98217773 C100.88632858 87.02501358 100.88618256 86.06784943 100.8860321 85.0816803 C100.88672329 81.94896093 100.89447815 78.81630261 100.90234375 75.68359375 C100.90421076 73.49927299 100.90563332 71.31495182 100.90663147 69.13063049 C100.91043439 63.40472236 100.92024552 57.67883993 100.93133545 51.95294189 C100.94340448 45.07036622 100.94796241 38.18778192 100.95378876 31.30519867 C100.96345859 20.87011462 100.9826307 10.43508686 101 0 C118.16 0 135.32 0 153 0 C153.04898438 3.99222656 153.09796875 7.98445313 153.1484375 12.09765625 C153.19321773 15.35397012 153.23969756 18.61025025 153.28729248 21.86652374 C153.33649165 25.26344943 153.38201467 28.66031766 153.421875 32.05737305 C153.66613655 52.63259176 154.02081569 73.32519711 157.75 93.625 C157.91918945 94.56118164 158.08837891 95.49736328 158.26269531 96.46191406 C163.29336205 123.04492213 172.86001442 150.43901055 191 171 C192.04607422 172.22589844 192.04607422 172.22589844 193.11328125 173.4765625 C200.65346372 182.12835268 208.75075839 189.78922939 218.375 196.0625 C218.95789795 196.4447876 219.5407959 196.8270752 220.14135742 197.22094727 C223.36927687 199.24810486 226.14344969 200.96939246 230 201 C233.01002726 199.53702502 233.01002726 199.53702502 236 197.25 C236.55961426 196.84604004 237.11922852 196.44208008 237.69580078 196.02587891 C273.31333668 169.89177288 291.86984916 134.30437402 299.23828125 91.18359375 C303.65926722 61.09821744 301.59458978 30.40576634 302 0 C386.81 0 471.62 0 559 0 C559.65170335 4.56192345 560.12570829 8.38851686 560.12939453 12.89331055 C560.13412277 14.56752327 560.13412277 14.56752327 560.13894653 16.27555847 C560.1369223 17.46724136 560.13489807 18.65892426 560.1328125 19.88671875 C560.13376923 21.1389473 560.13472595 22.39117584 560.13571167 23.68135071 C560.13639124 26.33325669 560.13506027 28.98507017 560.13037109 31.63696289 C560.12364416 35.62843927 560.13029324 39.61985082 560.13671875 43.61132812 C560.1481883 80.8038839 560.1481883 80.8038839 557.8125 96.1875 C557.62131592 97.46113403 557.62131592 97.46113403 557.42626953 98.76049805 C550.31535108 143.39947021 530.81646752 184.58520843 500.0078125 217.78125 C497.96144016 219.96478319 497.96144016 219.96478319 496.24609375 222.40234375 C493.21193204 225.91141773 489.71218256 228.39380631 485.9375 231.0625 C485.14384033 231.62686768 484.35018066 232.19123535 483.5324707 232.77270508 C465.35783906 245.57402946 446.73437367 255.91444799 426 264 C426.94504395 264.48243164 427.89008789 264.96486328 428.86376953 265.46191406 C460.71362007 281.73147413 460.71362007 281.73147413 475.14550781 289.70507812 C485.98580431 295.68044063 496.99813053 301.32927481 508 307 C508 307.66 508 308.32 508 309 C508.99 309 509.98 309 511 309 C511.01417969 308.10925781 511.02835937 307.21851563 511.04296875 306.30078125 C512.16906957 275.22648554 520.63623108 244.41272258 529.0625 214.625 C529.26410736 213.90673035 529.46571472 213.18846069 529.6734314 212.44842529 C534.13559137 196.62971455 539.83643977 181.63570666 547.0625 166.875 C547.38603455 166.21012573 547.70956909 165.54525146 548.04290771 164.86022949 C566.62395841 126.77684746 591.65984291 90.40981536 625.35546875 64.08984375 C627.79861036 62.15914838 630.13541778 60.1383302 632.47045898 58.0793457 C667.32182414 27.61045554 717.64278387 7.18530157 763 0 C763.72199058 4.53860608 764.12464685 8.88960994 764.12304783 13.48358822 C764.12503888 14.75154797 764.12702993 16.01950771 764.12908131 17.32589048 C764.1262288 18.72018511 764.12328322 20.11447955 764.12025452 21.5087738 C764.12069084 22.99974351 764.12156687 24.49071314 764.12284368 25.98168236 C764.12507665 30.07044333 764.12108374 34.15917803 764.11606562 38.24793565 C764.11174412 42.6602601 764.11320875 47.07258309 764.1139679 51.48490906 C764.11449205 59.12682381 764.11135655 66.76873002 764.10573006 74.41064262 C764.09760041 85.45954348 764.09499833 96.50844021 764.09374207 107.55734373 C764.09155385 125.48378813 764.08490001 143.41022799 764.07543945 161.33666992 C764.06625938 178.74975563 764.05918145 196.1628401 764.05493164 213.57592773 C764.05466892 214.64940708 764.05440619 215.72288642 764.05413551 216.82889544 C764.05283046 222.21426665 764.05156676 227.59963786 764.05032361 232.98500907 C764.03995818 277.65667603 764.02207076 322.32833742 764 367 C747.5 367 731 367 714 367 C714 334.99 714 302.98 714 270 C665.82 270 617.64 270 568 270 C567.67 273.3 567.34 276.6 567 280 C566.69710749 282.56885937 566.38505745 285.13666069 566.0625 287.703125 C565.8878772 289.11065927 565.71340274 290.51821195 565.5390625 291.92578125 C565.27080607 294.08207519 565.00148661 296.23821718 564.72949219 298.39404297 C562.65372378 314.88319235 561.80152624 331.26648845 561.4375 347.875 C561.39418657 349.7382884 561.35056882 351.60156975 561.30664062 353.46484375 C561.20092575 357.97648909 561.0993041 362.48820919 561 367 C554.08554297 367.25730329 547.17235256 367.43019315 540.25415039 367.54931641 C537.90993141 367.59906025 535.56601352 367.66688485 533.22290039 367.75439453 C529.81841188 367.87819411 526.4180766 367.93294875 523.01171875 367.9765625 C521.99422043 368.02817535 520.97672211 368.07978821 519.9283905 368.13296509 C509.76443492 368.14049428 502.41510844 363.39047043 493.82078743 358.55017853 C488.6372824 355.70155615 483.33008225 353.09884733 478.03369141 350.46801758 C476.25866616 349.58181078 474.4836428 348.69560017 472.708754 347.80912012 C470.86126512 346.88682791 469.0132022 345.96569568 467.16496658 345.04490089 C463.26054858 343.09959727 459.35776166 341.15103586 455.45516968 339.20207214 C447.17965066 335.06980002 438.90241895 330.9409647 430.625 326.8125 C421.66058808 322.34136884 412.69650273 317.86958914 403.73436868 313.39389342 C399.86937022 311.46385558 396.00341196 309.53575916 392.13665318 307.60925066 C390.30737169 306.69746851 388.47856803 305.78473604 386.64996338 304.87159729 C384.44133437 303.7686951 382.23200346 302.66719667 380.02175903 301.5675354 C372.59137681 297.85260617 365.32354292 293.94344619 358 290 C358 315.41 358 340.82 358 367 C340.84 367 323.68 367 306 367 C305.505 288.79 305.505 288.79 305 209 C301.04 212.96 301.04 212.96 297 217 C294.35926207 219.37666414 291.70579279 221.70102221 289 224 C288.13890625 224.75023437 287.2778125 225.50046875 286.390625 226.2734375 C276.29006108 234.92716389 265.54470103 242.40302799 254 249 C254 287.94 254 326.88 254 367 C170.18 367 86.36 367 0 367 C0 245.89 0 124.78 0 0 Z M358 53 C358 109.43 358 165.86 358 224 C384.91722949 221.43645433 406.73545949 215.7975322 430.75 204 C432.21288452 203.2894043 432.21288452 203.2894043 433.70532227 202.56445312 C440.50120637 199.12184356 446.22687832 194.95179097 452 190 C452.82193848 189.30181152 453.64387695 188.60362305 454.49072266 187.88427734 C459.47412277 183.60978501 463.84955251 179.07927748 468 174 C468.40476562 173.51289551 468.80953125 173.02579102 469.2265625 172.52392578 C494.53981253 141.94633391 507.336887 104.63918836 507.0625 64.9375 C507.05573242 63.06674805 507.05573242 63.06674805 507.04882812 61.15820312 C507.03713163 58.10541779 507.02074086 55.05273502 507 52 C490.67356003 51.97649676 474.34712567 51.95893615 458.0206728 51.94818783 C450.43768557 51.94306151 442.85470894 51.93608989 435.27172852 51.92456055 C428.65184448 51.91450043 422.03196812 51.90812003 415.41207665 51.90591151 C411.91651118 51.90462335 408.42096766 51.90166084 404.92540932 51.89426994 C400.99494686 51.88602921 397.06450463 51.88601601 393.1340332 51.88647461 C392.01263947 51.88287933 390.89124573 51.87928406 389.73587036 51.87557983 C379.10954606 51.88878889 368.65770467 52.49249025 358 53 Z M646.81640625 113.39453125 C644.76014814 115.2967839 642.70163006 117.06645592 640.5390625 118.8359375 C636.7193975 122.09246344 633.79123419 125.79160501 630.8125 129.8125 C629.97730835 130.92564575 629.97730835 130.92564575 629.12524414 132.0612793 C627.4052507 134.3658711 625.70060923 136.68107735 624 139 C623.48211914 139.70125 622.96423828 140.4025 622.43066406 141.125 C608.45127256 160.13625233 596.89872271 180.31709292 587.625 202 C587.29081055 202.77738525 586.95662109 203.55477051 586.61230469 204.35571289 C586.29938477 205.10457764 585.98646484 205.85344238 585.6640625 206.625 C585.39029785 207.27726563 585.1165332 207.92953125 584.83447266 208.6015625 C583.65393086 211.99467034 582.87133636 215.51465458 582 219 C625.56 219 669.12 219 714 219 C714 169.83 714 120.66 714 70 C691.75479765 70 662.43486535 98.70918066 646.81640625 113.39453125 Z " fill="#B478FF" transform="translate(0,0)"/>
<path d="M0 0 C15.09271451 2.26781721 29.5431614 7.25384553 44 12 C44.99515625 12.32629395 45.9903125 12.65258789 47.015625 12.98876953 C74.60165444 22.17924226 101.20801521 34.79920639 124 53 C125.32837891 54.05767578 125.32837891 54.05767578 126.68359375 55.13671875 C129.47951659 57.39699309 132.24082081 59.69505303 135 62 C135.99902344 62.81210937 136.99804688 63.62421875 138.02734375 64.4609375 C145.8589535 70.91231355 153.12354089 77.91007982 160.3125 85.0625 C161.23135986 85.97217529 162.15021973 86.88185059 163.09692383 87.8190918 C171.27956508 96.03867499 178.75118379 104.75921726 185.25 114.375 C185.70342773 115.04378174 186.15685547 115.71256348 186.62402344 116.40161133 C188.09587022 118.59264461 189.55108456 120.79374028 191 123 C191.50015625 123.76006348 192.0003125 124.52012695 192.515625 125.30322266 C221.64356186 169.97893137 237.32605996 218.69568213 247.4375 270.75 C247.67227051 271.95487061 247.90704102 273.15974121 248.14892578 274.40112305 C249.80986745 283.26583062 250.87628577 292.01028615 252 301 C252.495 176.755 252.495 176.755 253 50 C236.83 50 220.66 50 204 50 C204 33.5 204 17 204 0 C252.51 0 301.02 0 351 0 C351.55535821 16.66074627 352 33.33000033 352 50 C335.5 50 319 50 302 50 C302.33 51.98 302.66 53.96 303 56 C303.08227374 57.59801034 303.12381935 59.19867664 303.12304783 60.79880333 C303.12503888 61.71643247 303.12702993 62.63406161 303.12908131 63.57949769 C303.12616847 64.5736672 303.12325563 65.56783671 303.12025452 66.59213257 C303.12153615 68.19240781 303.12153615 68.19240781 303.12284368 69.82501185 C303.12449067 73.3994716 303.11898985 76.97388442 303.11352539 80.54833984 C303.11324332 83.11076862 303.11340163 85.67319749 303.1139679 88.23562622 C303.11419561 93.75219698 303.11135933 99.26875263 303.10573006 104.78532028 C303.09759643 112.76130833 303.09499792 120.73729067 303.09374207 128.71328242 C303.09155448 141.65439856 303.08490233 154.59550838 303.07543945 167.53662109 C303.06625776 180.10628223 303.05918063 192.67594165 303.05493164 205.24560547 C303.05453756 206.40816923 303.05453756 206.40816923 303.05413551 207.59421913 C303.05283045 211.48245384 303.05156675 215.37068856 303.05032361 219.25892329 C303.03996012 251.50595445 303.02152672 283.75297388 303 316 C319.17 316 335.34 316 352 316 C352 332.83 352 349.66 352 367 C302.5 367 253 367 202 367 C201.67 353.8 201.34 340.6 201 327 C199.74150135 310.696722 198.43597336 294.56980508 195.55078125 278.484375 C195 275 195 275 195 270 C146.82 270 98.64 270 49 270 C49 302.01 49 334.02 49 367 C32.5 367 16 367 -1 367 C-1.02259993 321.25728105 -1.04050614 275.51456343 -1.05106533 229.77184 C-1.05231606 224.37320257 -1.05361038 218.97456515 -1.05493164 213.57592773 C-1.05532511 211.96375002 -1.05532511 211.96375002 -1.05572652 210.31900305 C-1.06007948 192.90937451 -1.06796499 175.49974927 -1.0771528 158.09012269 C-1.08649971 140.23024311 -1.09205782 122.37036525 -1.09408849 104.51048332 C-1.09546156 93.48733701 -1.09980048 82.46420001 -1.10791647 71.44105656 C-1.11319671 63.88516493 -1.11480137 56.32927814 -1.11350138 48.7733848 C-1.11286001 44.41211235 -1.1138529 40.0508562 -1.11920547 35.68958664 C-1.12407029 31.69661585 -1.12431833 27.70367233 -1.12089889 23.71070028 C-1.12047624 22.26643939 -1.12174595 20.8221768 -1.12488318 19.37791925 C-1.1289028 17.41314626 -1.12613307 15.4483629 -1.12304783 13.48358822 C-1.12342755 12.39265171 -1.12380727 11.3017152 -1.1241985 10.17772001 C-0.98947808 6.73078817 -0.54162382 3.40477733 0 0 Z M49 70 C49 119.17 49 168.34 49 219 C92.56 219 136.12 219 181 219 C179.12829245 212.76097482 177.30577552 206.83978779 174.8125 200.875 C174.51061768 200.15054688 174.20873535 199.42609375 173.89770508 198.6796875 C163.34457368 173.74821892 148.77997947 151.16565593 132 130 C130.83984375 128.51306641 130.83984375 128.51306641 129.65625 126.99609375 C125.77280355 122.108537 121.87744622 117.70518053 117.06640625 113.72265625 C114.79715216 111.83089623 112.65982545 109.82809671 110.5 107.8125 C95.38642828 94.24019054 78.11696803 82.88196594 60 73.75 C59.24025879 73.36690674 58.48051758 72.98381348 57.69775391 72.58911133 C53.54342537 70.54785614 53.54342537 70.54785614 49 70 Z " fill="#B478FF" transform="translate(835,1)"/>
</svg>
